<?xml version="1.0" encoding="UTF-8" standalone="no"?><!DOCTYPE svg PUBLIC "-//W3C//DTD SVG 1.1//EN" "http://www.w3.org/Graphics/SVG/1.1/DTD/svg11.dtd"><svg width="100%" height="100%" viewBox="0 0 54 54" version="1.1" xmlns="http://www.w3.org/2000/svg" xmlns:xlink="http://www.w3.org/1999/xlink" xml:space="preserve" xmlns:serif="http://www.serif.com/" style="fill-rule:evenodd;clip-rule:evenodd;stroke-linejoin:round;stroke-miterlimit:2;"><g><g><path d="M52,0l-50,0c-1.104,0 -2,0.896 -2,2l0,50c0,1.104 0.896,2 2,2l50,0c1.104,0 2,-0.896 2,-2l0,-50c0,-1.104 -0.896,-2 -2,-2Zm-2,50l-46,0l0,-46l46,0l0,46Z" style="fill:#fff;fill-rule:nonzero;"/><path d="M15.701,27.044l9.299,-9.299l0,23.338c0,1.105 0.896,2 2,2c1.104,0 2,-0.895 2,-2l0,-23.338l9.299,9.299c0.39,0.391 0.902,0.586 1.414,0.586c0.512,0 1.023,-0.195 1.414,-0.586c0.781,-0.781 0.781,-2.047 0,-2.828l-12.712,-12.712c-0.362,-0.363 -0.862,-0.587 -1.415,-0.587c-0.553,0 -1.053,0.224 -1.415,0.587l-12.712,12.712c-0.781,0.781 -0.781,2.047 0,2.828c0.781,0.781 2.047,0.781 2.828,0Z" style="fill:#fff;fill-rule:nonzero;"/></g></g></svg>