<?xml version="1.0" encoding="UTF-8" standalone="no"?><!DOCTYPE svg PUBLIC "-//W3C//DTD SVG 1.1//EN" "http://www.w3.org/Graphics/SVG/1.1/DTD/svg11.dtd"><svg width="100%" height="100%" viewBox="0 0 72 72" version="1.1" xmlns="http://www.w3.org/2000/svg" xmlns:xlink="http://www.w3.org/1999/xlink" xml:space="preserve" xmlns:serif="http://www.serif.com/" style="fill-rule:evenodd;clip-rule:evenodd;stroke-linejoin:round;stroke-miterlimit:2;"><path d="M36,0c-19.9,0 -36,16.1 -36,36c0,19.9 16.1,36 36,36c19.9,0 36,-16.1 36,-36c0,-19.9 -16.1,-36 -36,-36Zm12.4,45.6c0.8,0.8 0.8,2 0,2.8c-0.4,0.4 -0.9,0.6 -1.4,0.6c-0.5,0 -1,-0.2 -1.4,-0.6l-9.6,-9.6l-9.6,9.6c-0.4,0.4 -0.9,0.6 -1.4,0.6c-0.5,0 -1,-0.2 -1.4,-0.6c-0.8,-0.8 -0.8,-2 0,-2.8l9.6,-9.6l-9.6,-9.6c-0.8,-0.8 -0.8,-2 0,-2.8c0.8,-0.8 2,-0.8 2.8,0l9.6,9.6l9.6,-9.6c0.8,-0.8 2,-0.8 2.8,0c0.8,0.8 0.8,2 0,2.8l-9.6,9.6l9.6,9.6Z" style="fill:#cb3131;fill-rule:nonzero;"/></svg>