<?xml version="1.0" encoding="UTF-8" standalone="no"?><!DOCTYPE svg PUBLIC "-//W3C//DTD SVG 1.1//EN" "http://www.w3.org/Graphics/SVG/1.1/DTD/svg11.dtd"><svg width="100%" height="100%" viewBox="0 0 569 151" version="1.1" xmlns="http://www.w3.org/2000/svg" xmlns:xlink="http://www.w3.org/1999/xlink" xml:space="preserve" xmlns:serif="http://www.serif.com/" style="fill-rule:evenodd;clip-rule:evenodd;stroke-linejoin:round;stroke-miterlimit:2;"><g id="BeautyTruth--Pacifico-" serif:id="BeautyTruth (Pacifico)"><path d="M91.502,32.371c0,6.114 -2.158,11.384 -6.474,15.808c-4.316,4.424 -10.611,7.607 -18.883,9.549c4.46,1.223 7.841,3.219 10.143,5.989c2.301,2.769 3.452,5.952 3.452,9.549c0,5.683 -1.78,10.611 -5.341,14.783c-3.561,4.172 -8.758,7.391 -15.592,9.657c-6.834,2.266 -15.07,3.399 -24.71,3.399c-3.596,0 -6.474,-0.108 -8.632,-0.323c-0.072,2.014 -0.935,3.524 -2.59,4.531c-1.654,1.008 -3.776,1.511 -6.366,1.511c-2.589,0 -4.37,-0.575 -5.341,-1.726c-0.971,-1.151 -1.385,-2.842 -1.241,-5.072c0.648,-10.071 1.906,-20.627 3.777,-31.669c1.87,-11.042 4.244,-21.707 7.121,-31.994c0.504,-1.798 1.511,-3.057 3.022,-3.776c1.51,-0.72 3.488,-1.079 5.934,-1.079c4.388,0 6.582,1.223 6.582,3.668c0,1.008 -0.215,2.158 -0.647,3.453c-1.87,5.611 -3.741,13.218 -5.611,22.822c-1.87,9.603 -3.201,18.757 -3.992,27.461c3.452,0.288 6.258,0.432 8.416,0.432c10.071,0 17.462,-1.457 22.174,-4.37c4.712,-2.914 7.068,-6.636 7.068,-11.168c0,-3.165 -1.349,-5.827 -4.047,-7.985c-2.697,-2.158 -7.211,-3.345 -13.541,-3.561c-1.439,-0.072 -2.446,-0.431 -3.022,-1.079c-0.575,-0.647 -0.863,-1.69 -0.863,-3.129c0,-2.086 0.432,-3.777 1.295,-5.072c0.863,-1.294 2.446,-1.978 4.748,-2.05c5.107,-0.144 9.729,-0.899 13.865,-2.266c4.136,-1.366 7.392,-3.291 9.765,-5.772c2.374,-2.482 3.561,-5.378 3.561,-8.687c0,-4.172 -2.05,-7.463 -6.15,-9.873c-4.101,-2.41 -10.395,-3.615 -18.883,-3.615c-7.697,0 -15.143,0.99 -22.336,2.968c-7.194,1.978 -13.308,4.478 -18.344,7.499c-2.302,1.367 -4.244,2.05 -5.827,2.05c-1.294,0 -2.284,-0.449 -2.967,-1.349c-0.683,-0.899 -1.025,-2.032 -1.025,-3.399c0,-1.798 0.378,-3.345 1.133,-4.639c0.755,-1.295 2.572,-2.77 5.449,-4.424c6.043,-3.453 13.128,-6.151 21.257,-8.093c8.129,-1.942 16.437,-2.914 24.926,-2.914c13.02,0 22.731,2.194 29.134,6.583c6.402,4.388 9.603,10.178 9.603,17.372Z" style="fill:#ededed;fill-rule:nonzero;"/><path d="M136.605,77.367c0.936,0 1.673,0.431 2.212,1.294c0.54,0.864 0.81,2.051 0.81,3.561c0,2.878 -0.684,5.108 -2.05,6.69c-2.662,3.237 -6.421,6.223 -11.276,8.956c-4.856,2.734 -10.053,4.1 -15.592,4.1c-7.554,0 -13.416,-2.05 -17.589,-6.15c-4.172,-4.1 -6.258,-9.711 -6.258,-16.833c0,-4.963 1.043,-9.585 3.129,-13.865c2.086,-4.281 4.982,-7.68 8.686,-10.197c3.705,-2.518 7.895,-3.777 12.571,-3.777c4.172,0 7.517,1.241 10.035,3.723c2.518,2.482 3.777,5.845 3.777,10.089c0,4.963 -1.781,9.225 -5.341,12.786c-3.561,3.561 -9.586,6.385 -18.074,8.471c1.798,3.309 5.215,4.963 10.251,4.963c3.237,0 6.923,-1.133 11.06,-3.399c4.136,-2.266 7.715,-5.233 10.736,-8.902c0.863,-1.007 1.834,-1.51 2.913,-1.51Zm-27.191,-15.646c-2.662,0 -4.91,1.546 -6.744,4.639c-1.834,3.094 -2.752,6.834 -2.752,11.222l0,0.216c4.245,-1.007 7.59,-2.518 10.035,-4.532c2.446,-2.014 3.669,-4.352 3.669,-7.013c0,-1.367 -0.378,-2.464 -1.133,-3.291c-0.755,-0.828 -1.78,-1.241 -3.075,-1.241Z" style="fill:#ededed;fill-rule:nonzero;"/><path d="M143.619,101.968c-4.46,0 -8.021,-1.618 -10.682,-4.855c-2.662,-3.237 -3.993,-7.481 -3.993,-12.733c0,-5.755 1.331,-11.204 3.993,-16.347c2.661,-5.143 6.204,-9.28 10.628,-12.409c4.424,-3.129 9.118,-4.694 14.082,-4.694c1.582,0 2.643,0.306 3.183,0.917c0.539,0.612 0.989,1.709 1.348,3.292c1.511,-0.288 3.094,-0.432 4.748,-0.432c3.525,0 5.287,1.259 5.287,3.777c0,1.51 -0.539,5.107 -1.618,10.79c-1.655,8.272 -2.482,14.027 -2.482,17.264c0,1.079 0.27,1.943 0.809,2.59c0.54,0.647 1.241,0.971 2.105,0.971c1.366,0 3.021,-0.881 4.963,-2.643c1.942,-1.763 4.568,-4.622 7.877,-8.579c0.863,-1.007 1.834,-1.51 2.913,-1.51c0.936,0 1.673,0.431 2.212,1.294c0.54,0.864 0.81,2.051 0.81,3.561c0,2.878 -0.684,5.108 -2.05,6.69c-2.95,3.669 -6.079,6.762 -9.388,9.28c-3.309,2.518 -6.51,3.776 -9.603,3.776c-2.374,0 -4.55,-0.809 -6.529,-2.427c-1.978,-1.619 -3.47,-3.831 -4.478,-6.636c-3.74,6.042 -8.452,9.063 -14.135,9.063Zm3.885,-10.898c1.582,0 3.093,-0.935 4.532,-2.805c1.438,-1.871 2.481,-4.352 3.129,-7.446l3.992,-19.854c-3.021,0.072 -5.809,1.205 -8.362,3.399c-2.554,2.194 -4.586,5.09 -6.097,8.686c-1.51,3.597 -2.266,7.41 -2.266,11.438c0,2.23 0.45,3.885 1.349,4.964c0.899,1.079 2.14,1.618 3.723,1.618Z" style="fill:#ededed;fill-rule:nonzero;"/><path d="M192.068,101.968c-3.237,0 -5.881,-1.492 -7.931,-4.477c-2.05,-2.986 -3.075,-6.708 -3.075,-11.168c0,-5.396 0.359,-10.341 1.079,-14.837c0.719,-4.496 1.906,-9.262 3.56,-14.297c0.72,-2.158 1.727,-3.705 3.022,-4.64c1.294,-0.935 3.345,-1.403 6.15,-1.403c1.583,0 2.68,0.252 3.291,0.755c0.612,0.504 0.917,1.259 0.917,2.266c0,0.576 -0.395,2.518 -1.187,5.827c-0.719,2.662 -1.294,5.072 -1.726,7.23c-1.439,7.553 -2.158,12.588 -2.158,15.106c0,1.511 0.18,2.572 0.539,3.183c0.36,0.612 0.936,0.917 1.727,0.917c1.079,0 2.428,-1.079 4.046,-3.237c1.619,-2.158 3.345,-5.431 5.18,-9.819c1.834,-4.388 3.614,-9.783 5.341,-16.185c0.575,-2.158 1.456,-3.705 2.643,-4.64c1.187,-0.935 2.968,-1.403 5.342,-1.403c1.654,0 2.805,0.198 3.453,0.594c0.647,0.395 0.971,1.133 0.971,2.212c0,1.798 -0.9,6.726 -2.698,14.782c-2.014,9.208 -3.021,14.891 -3.021,17.049c0,1.367 0.288,2.428 0.863,3.183c0.576,0.755 1.331,1.133 2.266,1.133c1.439,0 3.147,-0.881 5.125,-2.643c1.979,-1.763 4.622,-4.622 7.931,-8.579c0.863,-1.007 1.835,-1.51 2.914,-1.51c0.935,0 1.672,0.431 2.212,1.294c0.539,0.864 0.809,2.051 0.809,3.561c0,2.878 -0.683,5.108 -2.05,6.69c-3.093,3.813 -6.42,6.942 -9.981,9.388c-3.561,2.446 -7.607,3.668 -12.139,3.668c-3.453,0 -5.989,-1.33 -7.608,-3.992c-1.618,-2.662 -2.427,-6.402 -2.427,-11.222c-1.223,4.892 -3.058,8.65 -5.503,11.276c-2.446,2.626 -5.072,3.938 -7.877,3.938Z" style="fill:#ededed;fill-rule:nonzero;"/><path d="M279.038,77.367c0.935,0 1.672,0.431 2.212,1.294c0.539,0.864 0.809,2.051 0.809,3.561c0,2.878 -0.683,5.108 -2.05,6.69c-3.093,3.813 -6.474,6.942 -10.143,9.388c-3.669,2.446 -7.877,3.668 -12.625,3.668c-14.675,0 -22.012,-10.322 -22.012,-30.968c0,-3.165 0.108,-6.366 0.324,-9.603l-4.209,0c-2.158,0 -3.614,-0.396 -4.37,-1.187c-0.755,-0.791 -1.133,-2.05 -1.133,-3.777c0,-4.028 1.619,-6.042 4.856,-6.042l6.15,0c1.223,-7.913 3.094,-15.143 5.611,-21.689c2.518,-6.546 5.557,-11.761 9.118,-15.646c3.561,-3.884 7.392,-5.826 11.492,-5.826c3.021,0 5.395,1.33 7.122,3.992c1.726,2.662 2.589,6.007 2.589,10.035c0,11.15 -4.676,20.861 -14.027,29.134l12.085,0c1.151,0 1.978,0.252 2.482,0.755c0.503,0.504 0.755,1.439 0.755,2.806c0,4.963 -4.064,7.445 -12.193,7.445l-13.164,0c-0.144,3.597 -0.216,6.402 -0.216,8.416c0,7.482 0.881,12.733 2.644,15.754c1.762,3.022 4.55,4.532 8.362,4.532c3.093,0 5.827,-0.935 8.201,-2.805c2.374,-1.871 5.179,-4.676 8.416,-8.417c0.863,-1.007 1.835,-1.51 2.914,-1.51Zm-18.883,-59.779c-1.079,0 -2.284,1.349 -3.615,4.047c-1.331,2.697 -2.59,6.438 -3.777,11.222c-1.187,4.783 -2.176,10.088 -2.967,15.915c4.244,-3.668 7.427,-7.787 9.549,-12.355c2.122,-4.568 3.183,-8.722 3.183,-12.462c0,-4.245 -0.791,-6.367 -2.373,-6.367Z" style="fill:#ededed;fill-rule:nonzero;"/><path d="M330.898,74.079c0.742,-0.542 3.236,-3.599 4.424,-11.721c0.328,-2.237 6.667,-1.049 7.871,-1.696c1.227,-0.659 1.155,-1.034 1.33,-0.367c0.205,0.782 1.551,3.509 1.504,6.877c-0.035,2.535 -1.184,5.542 -2.391,7.753c-2.433,4.459 -8.175,8.483 -9.365,9.513c-0.804,0.695 -4.735,3.539 -5.814,4.258l-20.717,13.92c-2.734,14.891 -6.312,26.598 -10.737,35.122c-4.424,8.525 -10.052,12.787 -16.886,12.787c-3.669,0 -6.654,-1.133 -8.956,-3.399c-2.302,-2.266 -3.453,-5.233 -3.453,-8.902c0,-3.381 0.773,-6.834 2.32,-10.359c1.546,-3.525 4.424,-7.571 8.632,-12.139c4.208,-4.568 10.161,-9.801 17.858,-15.7l0.324,-2.482c0.503,-2.661 1.079,-6.474 1.726,-11.437c-1.439,5.179 -3.453,9.118 -6.043,11.815c-2.589,2.698 -5.323,4.046 -8.2,4.046c-3.237,0 -5.881,-1.492 -7.931,-4.477c-2.05,-2.986 -3.075,-6.708 -3.075,-11.168c0,-5.396 0.359,-10.341 1.079,-14.837c0.719,-4.496 1.906,-9.262 3.561,-14.297c0.719,-2.158 1.726,-3.705 3.021,-4.64c1.295,-0.935 3.345,-1.403 6.15,-1.403c1.583,0 2.68,0.252 3.291,0.755c0.612,0.504 0.918,1.259 0.918,2.266c0,0.576 -0.396,2.518 -1.187,5.827c-0.72,2.662 -1.295,5.072 -1.727,7.23c-0.575,2.949 -1.079,5.772 -1.51,8.47c-0.432,2.698 -0.648,4.91 -0.648,6.636c0,2.734 0.755,4.1 2.266,4.1c1.079,0 2.428,-1.079 4.046,-3.237c1.619,-2.158 3.345,-5.431 5.18,-9.819c1.834,-4.388 3.615,-9.783 5.341,-16.185c0.575,-2.158 1.457,-3.705 2.644,-4.64c1.187,-0.935 2.967,-1.403 5.341,-1.403c1.654,0 2.805,0.216 3.453,0.648c0.647,0.431 0.971,1.15 0.971,2.158c0,1.798 -0.935,7.984 -2.806,18.559l-2.805,17.372c5.539,-4.172 10.642,-7.838 15.893,-11.291c0.935,-0.576 4.526,-4.089 5.107,-4.513Zm-49.594,65.979c1.798,0 3.812,-2.086 6.042,-6.258c2.23,-4.172 4.46,-11.114 6.69,-20.825c-5.539,4.675 -9.549,8.938 -12.031,12.786c-2.482,3.849 -3.723,7.212 -3.723,10.089c0,1.223 0.234,2.23 0.702,3.021c0.467,0.792 1.241,1.187 2.32,1.187Z" style="fill:#ededed;fill-rule:nonzero;"/><path d="M410.572,11.869c2.23,0.432 3.902,1.187 5.017,2.266c1.115,1.079 1.673,2.338 1.673,3.777c0,2.374 -0.666,4.1 -1.997,5.179c-1.33,1.079 -3.435,1.511 -6.312,1.295c-6.474,-0.503 -11.528,-0.845 -15.16,-1.025c-3.633,-0.18 -8.399,-0.306 -14.298,-0.378c-2.661,13.236 -5.107,26.545 -7.337,39.925c-0.791,4.891 -1.619,10.556 -2.482,16.994c-0.863,6.439 -1.438,11.636 -1.726,15.592c-0.144,2.086 -1.007,3.687 -2.59,4.802c-1.582,1.115 -3.489,1.672 -5.719,1.672c-2.374,0 -4.208,-0.575 -5.503,-1.726c-1.295,-1.151 -1.942,-2.662 -1.942,-4.532c0,-1.726 0.27,-4.586 0.809,-8.578c0.54,-3.993 1.169,-8.183 1.889,-12.571c0.791,-4.388 1.402,-8.201 1.834,-11.438c0.791,-5.467 1.69,-10.898 2.697,-16.293c1.008,-5.395 2.015,-10.503 3.022,-15.322c0.216,-1.079 0.467,-2.32 0.755,-3.723c0.288,-1.403 0.612,-2.967 0.971,-4.694c-7.049,0.216 -12.588,0.792 -16.617,1.727c-4.028,0.935 -6.888,2.248 -8.578,3.938c-1.691,1.691 -2.126,3.735 -2.126,6.397c0,1.462 0.208,3.362 0.682,5.085c0.32,1.159 2.737,8.503 3.254,9.613c0.409,0.881 1.082,2.774 1.825,4.837c0.604,1.678 1.051,2.994 1.96,5.615c1.157,3.336 1.403,6.372 1.274,6.834c-0.538,1.934 -20.815,12.012 -17.896,9.909c0.193,-0.14 1.383,-1.048 1.813,-1.639c0.656,-0.901 1.847,-2.23 2.442,-3.035c1.532,-2.073 1.615,-5.904 1.411,-7.677c-0.17,-1.477 -0.815,-2.837 -1.191,-4.439c-0.602,-2.565 -1.132,-3.565 -1.665,-5.052c-0.638,-1.778 -3.758,-9.527 -4.693,-11.793c-0.935,-2.266 -1.392,-4.969 -1.392,-7.846c0,-6.115 0.922,-11.089 4.914,-14.794c3.993,-3.704 10.071,-6.42 18.236,-8.146c8.165,-1.727 18.649,-2.59 31.454,-2.59c7.913,0 14.225,0.144 18.937,0.432c4.711,0.287 8.83,0.755 12.355,1.402Z" style="fill:#ededed;fill-rule:nonzero;"/><path d="M389.758,101.968c-2.734,0 -4.658,-1.438 -5.773,-4.316c-1.115,-2.877 -1.673,-7.481 -1.673,-13.811c0,-9.352 1.331,-18.236 3.993,-26.652c0.647,-2.086 1.708,-3.615 3.183,-4.586c1.475,-0.971 3.543,-1.457 6.204,-1.457c1.439,0 2.446,0.18 3.022,0.54c0.575,0.359 0.863,1.043 0.863,2.05c0,1.151 -0.54,3.74 -1.619,7.769c-0.719,2.877 -1.295,5.395 -1.726,7.553c-0.432,2.158 -0.791,4.82 -1.079,7.985c2.374,-6.187 5.035,-11.222 7.985,-15.107c2.949,-3.884 5.844,-6.654 8.686,-8.308c2.841,-1.655 5.449,-2.482 7.823,-2.482c4.676,0 7.014,2.338 7.014,7.014c0,0.935 -0.324,3.201 -0.972,6.798c-0.575,2.877 -0.863,4.676 -0.863,5.395c0,2.518 0.899,3.776 2.698,3.776c2.014,0 4.604,-1.582 7.769,-4.747c0.935,-0.935 1.906,-1.403 2.913,-1.403c0.935,0 1.673,0.414 2.212,1.241c0.54,0.827 0.809,1.924 0.809,3.291c0,2.662 -0.719,4.748 -2.158,6.258c-2.014,2.086 -4.37,3.867 -7.067,5.342c-2.698,1.474 -5.557,2.212 -8.579,2.212c-3.812,0 -6.708,-0.972 -8.686,-2.914c-1.978,-1.942 -2.967,-4.568 -2.967,-7.877c0,-1.079 0.108,-2.158 0.324,-3.237c0.143,-1.439 0.215,-2.41 0.215,-2.913c0,-1.151 -0.395,-1.727 -1.187,-1.727c-1.079,0 -2.499,1.205 -4.262,3.615c-1.762,2.41 -3.507,5.593 -5.233,9.549c-1.726,3.957 -3.129,8.129 -4.208,12.517c-0.792,3.381 -1.709,5.665 -2.752,6.852c-1.043,1.187 -2.679,1.78 -4.909,1.78Z" style="fill:#ededed;fill-rule:nonzero;"/><path d="M442.199,101.968c-3.237,0 -5.881,-1.492 -7.931,-4.477c-2.05,-2.986 -3.076,-6.708 -3.076,-11.168c0,-5.396 0.36,-10.341 1.08,-14.837c0.719,-4.496 1.906,-9.262 3.56,-14.297c0.72,-2.158 1.727,-3.705 3.022,-4.64c1.294,-0.935 3.345,-1.403 6.15,-1.403c1.583,0 2.68,0.252 3.291,0.755c0.612,0.504 0.917,1.259 0.917,2.266c0,0.576 -0.395,2.518 -1.187,5.827c-0.719,2.662 -1.294,5.072 -1.726,7.23c-1.439,7.553 -2.158,12.588 -2.158,15.106c0,1.511 0.18,2.572 0.539,3.183c0.36,0.612 0.936,0.917 1.727,0.917c1.079,0 2.428,-1.079 4.046,-3.237c1.619,-2.158 3.345,-5.431 5.18,-9.819c1.834,-4.388 3.614,-9.783 5.341,-16.185c0.575,-2.158 1.456,-3.705 2.643,-4.64c1.187,-0.935 2.968,-1.403 5.342,-1.403c1.654,0 2.805,0.198 3.452,0.594c0.648,0.395 0.972,1.133 0.972,2.212c0,1.798 -0.9,6.726 -2.698,14.782c-2.014,9.208 -3.021,14.891 -3.021,17.049c0,1.367 0.287,2.428 0.863,3.183c0.575,0.755 1.331,1.133 2.266,1.133c1.439,0 3.147,-0.881 5.125,-2.643c1.979,-1.763 4.622,-4.622 7.931,-8.579c0.863,-1.007 1.835,-1.51 2.914,-1.51c0.935,0 1.672,0.431 2.212,1.294c0.539,0.864 0.809,2.051 0.809,3.561c0,2.878 -0.683,5.108 -2.05,6.69c-3.093,3.813 -6.42,6.942 -9.981,9.388c-3.561,2.446 -7.607,3.668 -12.139,3.668c-3.453,0 -5.989,-1.33 -7.608,-3.992c-1.618,-2.662 -2.427,-6.402 -2.427,-11.222c-1.223,4.892 -3.058,8.65 -5.503,11.276c-2.446,2.626 -5.072,3.938 -7.877,3.938Z" style="fill:#ededed;fill-rule:nonzero;"/><path d="M529.169,77.367c0.935,0 1.672,0.431 2.212,1.294c0.539,0.864 0.809,2.051 0.809,3.561c0,2.878 -0.684,5.108 -2.05,6.69c-3.094,3.813 -6.475,6.942 -10.143,9.388c-3.669,2.446 -7.877,3.668 -12.625,3.668c-14.675,0 -22.012,-10.322 -22.012,-30.968c0,-3.165 0.108,-6.366 0.324,-9.603l-4.209,0c-2.158,0 -3.614,-0.396 -4.37,-1.187c-0.755,-0.791 -1.133,-2.05 -1.133,-3.777c0,-4.028 1.619,-6.042 4.856,-6.042l6.15,0c1.223,-7.913 3.094,-15.143 5.611,-21.689c2.518,-6.546 5.557,-11.761 9.118,-15.646c3.561,-3.884 7.392,-5.826 11.492,-5.826c3.021,0 5.395,1.33 7.121,3.992c1.727,2.662 2.59,6.007 2.59,10.035c0,11.15 -4.676,20.861 -14.027,29.134l12.085,0c1.151,0 1.978,0.252 2.482,0.755c0.503,0.504 0.755,1.439 0.755,2.806c0,4.963 -4.064,7.445 -12.193,7.445l-13.164,0c-0.144,3.597 -0.216,6.402 -0.216,8.416c0,7.482 0.881,12.733 2.644,15.754c1.762,3.022 4.55,4.532 8.362,4.532c3.093,0 5.827,-0.935 8.201,-2.805c2.374,-1.871 5.179,-4.676 8.416,-8.417c0.863,-1.007 1.835,-1.51 2.914,-1.51Zm-18.883,-59.779c-1.08,0 -2.284,1.349 -3.615,4.047c-1.331,2.697 -2.59,6.438 -3.777,11.222c-1.187,4.783 -2.176,10.088 -2.967,15.915c4.244,-3.668 7.427,-7.787 9.549,-12.355c2.122,-4.568 3.183,-8.722 3.183,-12.462c0,-4.245 -0.791,-6.367 -2.373,-6.367Z" style="fill:#ededed;fill-rule:nonzero;"/><path d="M561.647,51.146c2.302,0 4.047,0.594 5.234,1.781c1.187,1.186 1.78,2.931 1.78,5.233c0,1.87 -0.396,5.395 -1.187,10.574c-0.719,4.388 -1.295,8.543 -1.726,12.463c-0.432,3.921 -0.648,8.291 -0.648,13.11c0,2.734 -0.557,4.694 -1.672,5.881c-1.115,1.187 -2.932,1.78 -5.449,1.78c-2.374,0 -4.101,-0.611 -5.18,-1.834c-1.079,-1.223 -1.618,-3.057 -1.618,-5.503c0,-2.877 0.503,-7.625 1.51,-14.243c0.864,-5.755 1.295,-9.424 1.295,-11.006c0,-1.151 -0.395,-1.727 -1.187,-1.727c-0.935,0 -2.266,1.205 -3.992,3.615c-1.727,2.41 -3.453,5.593 -5.179,9.549c-1.727,3.957 -3.13,8.129 -4.209,12.517c-0.791,3.381 -1.708,5.665 -2.751,6.852c-1.043,1.187 -2.68,1.78 -4.91,1.78c-2.23,0 -3.866,-0.809 -4.909,-2.427c-1.043,-1.619 -1.745,-4.119 -2.104,-7.5c-0.36,-3.381 -0.54,-8.344 -0.54,-14.89c0,-11.078 1.133,-22.624 3.399,-34.637c2.266,-12.013 5.611,-22.102 10.035,-30.267c4.424,-8.165 9.729,-12.247 15.916,-12.247c3.309,0 5.988,1.421 8.038,4.262c2.051,2.842 3.076,6.528 3.076,11.06c0,7.266 -2.122,14.801 -6.367,22.606c-4.244,7.805 -11.15,16.923 -20.717,27.353c-0.216,3.741 -0.324,7.59 -0.324,11.546c2.374,-6.114 5.018,-11.096 7.931,-14.945c2.914,-3.848 5.791,-6.6 8.632,-8.254c2.842,-1.655 5.45,-2.482 7.823,-2.482Zm-10.358,-40.464c-1.295,0 -2.734,1.853 -4.316,5.557c-1.583,3.705 -3.112,8.705 -4.586,14.999c-1.475,6.294 -2.68,13.146 -3.615,20.556c4.46,-5.252 8.147,-10.971 11.06,-17.157c2.913,-6.187 4.37,-11.797 4.37,-16.833c0,-2.302 -0.252,-4.064 -0.755,-5.287c-0.504,-1.223 -1.223,-1.835 -2.158,-1.835Z" style="fill:#ededed;fill-rule:nonzero;"/></g></svg>