<?xml version="1.0" encoding="UTF-8" standalone="no"?><!DOCTYPE svg PUBLIC "-//W3C//DTD SVG 1.1//EN" "http://www.w3.org/Graphics/SVG/1.1/DTD/svg11.dtd"><svg width="100%" height="100%" viewBox="0 0 59 59" version="1.1" xmlns="http://www.w3.org/2000/svg" xmlns:xlink="http://www.w3.org/1999/xlink" xml:space="preserve" xmlns:serif="http://www.serif.com/" style="fill-rule:evenodd;clip-rule:evenodd;stroke-linejoin:round;stroke-miterlimit:2;"><path d="M29.235,9.773c2.915,0 5.573,1.172 7.487,3.087c1.915,1.915 3.087,4.544 3.087,7.487c0,2.915 -1.172,5.544 -3.087,7.459c-1.914,1.915 -4.572,3.115 -7.487,3.115c-2.915,0 -5.572,-1.2 -7.487,-3.115c-1.886,-1.915 -3.087,-4.544 -3.087,-7.459c0,-2.943 1.201,-5.572 3.087,-7.487c1.915,-1.915 4.572,-3.087 7.487,-3.087Zm0,-9.773c8.088,0 15.375,3.286 20.69,8.573c5.287,5.287 8.545,12.604 8.545,20.662c0,8.088 -3.258,15.375 -8.545,20.69c-4.744,4.716 -11.088,7.831 -18.118,8.431l-0.2,0.029l-0.171,0l-0.172,0.028l-0.201,0l-0.257,0.028l-0.428,0l-0.028,0.028l-2.201,0l-0.028,-0.028l-0.458,0l-0.257,-0.028l-0.171,0l-0.2,-0.028l-0.172,0l-0.171,-0.029c-7.06,-0.6 -13.403,-3.715 -18.119,-8.431c-5.286,-5.315 -8.573,-12.602 -8.573,-20.69c0,-8.059 3.287,-15.375 8.573,-20.662c5.287,-5.287 12.603,-8.573 20.662,-8.573Zm19.262,10.002c-4.945,-4.944 -11.745,-7.973 -19.262,-7.973c-7.516,0 -14.317,3.029 -19.232,7.973c-4.945,4.916 -7.974,11.717 -7.974,19.233c0,6.63 2.372,12.718 6.315,17.433l0,-1.143c0,-3.087 1.258,-5.888 3.287,-7.916c2.028,-2.029 4.829,-3.287 7.887,-3.287l19.434,0c3.086,0 5.887,1.258 7.916,3.287c2,2.028 3.286,4.829 3.286,7.916l0,1.143c3.944,-4.715 6.315,-10.803 6.315,-17.433c0,-7.516 -3.057,-14.317 -7.972,-19.233Zm-38.152,38.837c4.658,4.487 10.916,7.345 17.832,7.603l0.371,0l0.343,0.028l0.687,0l0.344,-0.028l0.398,0c6.888,-0.258 13.146,-3.115 17.804,-7.603l0,-3.314c0,-2.544 -1.028,-4.83 -2.686,-6.487c-1.687,-1.658 -3.973,-2.687 -6.487,-2.687l-19.433,0c-2.515,0 -4.801,1.028 -6.458,2.687c-1.687,1.657 -2.715,3.943 -2.715,6.487l0,3.314Zm19.633,7.603l0.286,0m5.03,-42.153c-1.543,-1.543 -3.687,-2.515 -6.059,-2.515c-2.372,0 -4.486,0.972 -6.059,2.515c-1.543,1.543 -2.486,3.687 -2.486,6.059c0,2.344 0.943,4.487 2.486,6.03c1.572,1.571 3.687,2.515 6.059,2.515c2.372,0 4.516,-0.943 6.059,-2.515c1.543,-1.543 2.515,-3.687 2.515,-6.03c-0.001,-2.373 -0.972,-4.516 -2.515,-6.059Z" style="fill-rule:nonzero;"/></svg>