<?xml version="1.0" encoding="UTF-8" standalone="no"?><!DOCTYPE svg PUBLIC "-//W3C//DTD SVG 1.1//EN" "http://www.w3.org/Graphics/SVG/1.1/DTD/svg11.dtd"><svg width="100%" height="100%" viewBox="0 0 96 96" version="1.1" xmlns="http://www.w3.org/2000/svg" xmlns:xlink="http://www.w3.org/1999/xlink" xml:space="preserve" xmlns:serif="http://www.serif.com/" style="fill-rule:evenodd;clip-rule:evenodd;stroke-linejoin:round;stroke-miterlimit:2;"><path d="M48,0c-26.5,0 -48,21.5 -48,48c0,26.5 21.5,48 48,48c26.5,0 48,-21.5 48,-48c0,-26.5 -21.5,-48 -48,-48Zm24.7,36.4l-28.2,28.3c-0.9,0.9 -2.2,1.5 -3.5,1.5c-1.3,0 -2.6,-0.5 -3.5,-1.5l-14.2,-14.2c-2,-2 -2,-5.1 0,-7.1c2,-2 5.1,-2 7.1,0l10.6,10.6l24.7,-24.7c2,-2 5.1,-2 7.1,0c1.9,2 1.9,5.1 -0.1,7.1Z" style="fill:#65a970;fill-rule:nonzero;"/></svg>